# xmcd CD database file
#
# Track frame offsets:
#	150
#	13698
#	27442
#	41129
#	54567
#	69579
#	79281
#	91042
#	107910
#	124212
#	138484
#	152976
#	166806
#	181470
#	208107
#	220620
#	234289
#	247053
#	260428
#	285809
#
# Disc length: 3969 seconds
#
# Revision: 0
# Processed by: cddbd v1.5.2PL0 Copyright (c) Steve Scherf et al.
# Submitted via: CDex 1.70beta2
#
DISCID=1b0f7f14
DTITLE=Josh White - 20 Légendes du Blues CD 18
DYEAR=2008
DGENRE=Blues
TTITLE0=Little Brother Blues
TTITLE1=Jesus Gonna Make Up My Dying Bed
TTITLE2=While The Blood Runs In Your Veins
TTITLE3=My Soul Gonna Leave With God
TTITLE4=Trouble
TTITLE5=Jerry
TTITLE6=Bad Housing Blues
TTITLE7=Number 12 Train
TTITLE8=St James Infirmary
TTITLE9=Blues In Berlin
TTITLE10=T-B Blues
TTITLE11=I Left A Good Deal In Mobile
TTITLE12=Black And Evil Blues
TTITLE13=Jelly, Jelly !
TTITLE14=Jim Crow Train
TTITLE15=Low Cotton
TTITLE16=Blood Red River
TTITLE17=I Know How To Do It
TTITLE18=Careless Love
TTITLE19=Prison Bound Blues
EXTD=YEAR: 2008
EXTT0=
EXTT1=
EXTT2=
EXTT3=
EXTT4=
EXTT5=
EXTT6=
EXTT7=
EXTT8=
EXTT9=
EXTT10=
EXTT11=
EXTT12=
EXTT13=
EXTT14=
EXTT15=
EXTT16=
EXTT17=
EXTT18=
EXTT19=
PLAYORDER=
